# xmcd
#
# Track frame offsets:
#	150
#	28978
#	46241
#	61470
#	84927
#	112472
#	140403
#	164775
#	191281
#	211558
#	234827
#	260033
#	285736
#	311962
#
# Disc length: 4760 seconds
#
# Revision: 1
# Processed by: cddbd v1.5.1PL2 Copyright (c) Steve Scherf et al.
# Submitted via: EasyCDDAExtractor 9.0.0.1
#
DISCID=d012960e
DTITLE=Saxon - Ångfärjestationen Helsingborg 01-12-95
DYEAR=1995
DGENRE=Hard Rock
TTITLE0=Dogs Of War
TTITLE1=Motorcycle Man
TTITLE2=And The Band Played On
TTITLE3=Requiem (We Will Remember)
TTITLE4=Power and The Glory
TTITLE5=Great White Buffalo
TTITLE6=Denim and Leather
TTITLE7=Dallas 1 PM
TTITLE8=Strong Arm Of The Law
TTITLE9=747 (Strangers In The Night)
TTITLE10=Princess Of The Night
TTITLE11=Solid Ball Of Rock
TTITLE12=Crusader
TTITLE13=Wheels Of Steel
EXTD=
EXTT0=
EXTT1=
EXTT2=
EXTT3=
EXTT4=
EXTT5=
EXTT6=
EXTT7=
EXTT8=
EXTT9=
EXTT10=
EXTT11=
EXTT12=
EXTT13=
PLAYORDER=
